<!--?xml version="1.0" standalone="no"?-->
              <svg id="sw-js-blob-svg" viewBox="0 0 100 100" xmlns="http://www.w3.org/2000/svg" version="1.1">
                    <defs> 
                        <linearGradient id="sw-gradient" x1="0" x2="1" y1="1" y2="0">
                            <stop id="stop1" stop-color="rgba(33.863, 239.888, 187.887, 1)" offset="0%"></stop>
                            <stop id="stop2" stop-color="rgba(21.742, 255, 211.141, 1)" offset="100%"></stop>
                        </linearGradient>
                    </defs>
                <path fill="url(#sw-gradient)" d="M20.5,-32.1C26.8,-31.9,32.3,-26.9,36,-20.7C39.6,-14.6,41.4,-7.3,37.8,-2.1C34.1,3.1,25.1,6.2,20.8,11.2C16.5,16.2,16.9,23.1,14.2,25.4C11.6,27.7,5.8,25.2,1,23.4C-3.7,21.6,-7.4,20.4,-11.1,18.7C-14.8,17.1,-18.4,14.9,-20.1,11.7C-21.7,8.5,-21.3,4.3,-22.3,-0.6C-23.3,-5.4,-25.6,-10.8,-25.8,-17.2C-26,-23.5,-24.1,-30.9,-19.4,-32.1C-14.8,-33.2,-7.4,-28.1,-0.1,-27.9C7.1,-27.7,14.2,-32.3,20.5,-32.1Z" width="100%" height="100%" transform="translate(50 50)" stroke-width="0" style="transition: all 0.3s ease 0s;" stroke="url(#sw-gradient)"></path>
              </svg>