<!--?xml version="1.0" standalone="no"?-->
              <svg id="sw-js-blob-svg" viewBox="0 0 100 100" xmlns="http://www.w3.org/2000/svg" version="1.1">
                    <defs> 
                        <linearGradient id="sw-gradient" x1="0" x2="1" y1="1" y2="0">
                            <stop id="stop1" stop-color="rgba(33.863, 239.888, 187.887, 1)" offset="0%"></stop>
                            <stop id="stop2" stop-color="rgba(21.742, 148.71, 255, 1)" offset="100%"></stop>
                        </linearGradient>
                    </defs>
                <path fill="url(#sw-gradient)" d="M20.1,-24.8C25.3,-19.6,28.4,-12.6,26.7,-7C24.9,-1.4,18.5,2.8,15.2,9C11.9,15.2,11.7,23.5,8.5,25.6C5.4,27.7,-0.9,23.6,-6.3,20.4C-11.7,17.1,-16.3,14.6,-22.7,10C-29,5.4,-37,-1.3,-38.6,-9.3C-40.2,-17.4,-35.3,-26.8,-27.7,-31.6C-20.2,-36.4,-10.1,-36.7,-1.3,-35.1C7.4,-33.5,14.9,-30,20.1,-24.8Z" width="100%" height="100%" transform="translate(50 50)" stroke-width="0" style="transition: all 0.3s ease 0s;" stroke="url(#sw-gradient)"></path>
              </svg>